<svg width="304" height="504" viewBox="0 0 304 504" fill="none" xmlns="http://www.w3.org/2000/svg">
<path d="M0.5 8C0.5 3.85786 3.85786 0.5 8 0.5H296C300.142 0.5 303.5 3.85787 303.5 8V440C303.5 475.07 275.07 503.5 240 503.5H8.00001C3.85787 503.5 0.5 500.142 0.5 496V8Z" fill="#EBECEB" stroke="#939393"/>
<rect x="184.683" y="447.504" width="7" height="55" transform="rotate(-30 184.683 447.504)" stroke="#939393"/>
<rect x="199.611" y="439.504" width="7" height="55" transform="rotate(-30 199.611 439.504)" stroke="#939393"/>
<rect x="214.539" y="431.504" width="7" height="55" transform="rotate(-30 214.539 431.504)" stroke="#939393"/>
<rect x="229.468" y="423.504" width="7" height="55" transform="rotate(-30 229.468 423.504)" stroke="#939393"/>
<rect x="244.396" y="415.504" width="7" height="55" transform="rotate(-30 244.396 415.504)" stroke="#939393"/>
<rect x="259.324" y="407.504" width="7" height="55" transform="rotate(-30 259.324 407.504)" stroke="#939393"/>
<rect x="88" y="417.307" width="40" height="12" rx="6" transform="rotate(-22.5 88 417.307)" fill="#939393"/>
<rect x="137.547" y="417.307" width="40" height="12" rx="6" transform="rotate(-22.5 137.547 417.307)" fill="#939393"/>
<rect x="192.5" y="334.5" width="39" height="39" rx="19.5" fill="#DA3452" stroke="#D44848"/>
<rect x="240.5" y="310.5" width="39" height="39" rx="19.5" fill="#DA3452" stroke="#D44848"/>
<mask id="path-12-inside-1_2_64" fill="white">
<path fill-rule="evenodd" clip-rule="evenodd" d="M50 306C48.8954 306 48 306.895 48 308V330L26 330C24.8954 330 24 330.895 24 332V352C24 353.105 24.8954 354 26 354H48V376C48 377.105 48.8954 378 50 378H70C71.1046 378 72 377.105 72 376V354H94C95.1046 354 96 353.105 96 352V332C96 330.895 95.1046 330 94 330L72 330V308C72 306.895 71.1046 306 70 306H50Z"/>
</mask>
<path fill-rule="evenodd" clip-rule="evenodd" d="M50 306C48.8954 306 48 306.895 48 308V330L26 330C24.8954 330 24 330.895 24 332V352C24 353.105 24.8954 354 26 354H48V376C48 377.105 48.8954 378 50 378H70C71.1046 378 72 377.105 72 376V354H94C95.1046 354 96 353.105 96 352V332C96 330.895 95.1046 330 94 330L72 330V308C72 306.895 71.1046 306 70 306H50Z" fill="#1F1F1F"/>
<path d="M48 330V331H49V330H48ZM26 330V329V330ZM48 354H49V353H48V354ZM72 354V353H71V354H72ZM94 330V331V330ZM72 330H71V331H72V330ZM49 308C49 307.448 49.4477 307 50 307V305C48.3431 305 47 306.343 47 308H49ZM49 330V308H47V330H49ZM26 331L48 331V329L26 329L26 331ZM25 332C25 331.448 25.4477 331 26 331V329C24.3431 329 23 330.343 23 332H25ZM25 352V332H23V352H25ZM26 353C25.4477 353 25 352.552 25 352H23C23 353.657 24.3431 355 26 355V353ZM48 353H26V355H48V353ZM49 376V354H47V376H49ZM50 377C49.4477 377 49 376.552 49 376H47C47 377.657 48.3431 379 50 379V377ZM70 377H50V379H70V377ZM71 376C71 376.552 70.5523 377 70 377V379C71.6569 379 73 377.657 73 376H71ZM71 354V376H73V354H71ZM94 353H72V355H94V353ZM95 352C95 352.552 94.5523 353 94 353V355C95.6569 355 97 353.657 97 352H95ZM95 332V352H97V332H95ZM94 331C94.5523 331 95 331.448 95 332H97C97 330.343 95.6569 329 94 329V331ZM72 331L94 331V329L72 329V331ZM71 308V330H73V308H71ZM70 307C70.5523 307 71 307.448 71 308H73C73 306.343 71.6569 305 70 305V307ZM50 307H70V305H50V307Z" fill="#1F1F1F" mask="url(#path-12-inside-1_2_64)"/>
<path d="M24.5 50C24.5 45.8579 27.8579 42.5 32 42.5H272C276.142 42.5 279.5 45.8579 279.5 50V202C279.5 219.397 265.397 233.5 248 233.5H32C27.8579 233.5 24.5 230.142 24.5 226V50Z" fill="#9A9A9A" stroke="#939393"/>
<rect x="36" y="110" width="12" height="12" rx="6" fill="#D44848"/>
<g clip-path="url(#clip0_2_64)">
<rect width="160" height="144" transform="translate(72 66)" fill="#C4CFA1"/>
<rect x="84" y="78" width="24" height="24" fill="#8B956D"/>
<path d="M90.2907 98V83.7143H93.1479V89.4286H98.8622V83.7143H101.719V98H98.8622V92.2857H93.1479V98H90.2907Z" fill="#C4CFA1"/>
<rect x="112" y="78" width="24" height="24" fill="#8B956D"/>
<path d="M126.862 86.5714H121.148V83.7143H126.862V86.5714ZM121.148 95.1429H118.291V86.5714H121.148V95.1429ZM126.862 98H121.148V95.1429H126.862V98ZM129.719 95.1429H126.862V86.5714H129.719V95.1429Z" fill="#C4CFA1"/>
<rect x="140" y="78" width="24" height="24" fill="#8B956D"/>
<path d="M146.291 98V83.7143H154.862V86.5714H149.148V89.4286H154.862V92.2857H149.148V98H146.291ZM154.862 86.5714H157.719V89.4286H154.862V86.5714Z" fill="#C4CFA1"/>
<rect x="168" y="78" width="24" height="24" fill="#8B956D"/>
<path d="M184.28 86.5714H178.566V89.4286H184.28V92.2857H178.566V95.1429H184.28V98H175.709V83.7143H184.28V86.5714Z" fill="#C4CFA1"/>
<rect x="196" y="78" width="24" height="24" fill="#8B956D"/>
<path d="M202.291 98V95.1429H210.862V98H202.291ZM205.148 86.5714V83.7143H213.719V86.5714H205.148ZM205.148 92.2857H210.862V89.4286H205.148V92.2857ZM210.862 92.2857H213.719V95.1429H210.862V92.2857ZM202.291 86.5714H205.148V89.4286H202.291V86.5714Z" fill="#C4CFA1"/>
<rect x="84" y="106" width="24" height="24" fill="#8B956D"/>
<path d="M101.719 117.429H98.8622V114.571H101.719V117.429ZM98.8622 114.571H93.1479V111.714H98.8622V114.571ZM101.719 123.143H98.8622V120.286H101.719V123.143ZM93.1479 123.143H90.2907V114.571H93.1479V123.143ZM98.8622 126H93.1479V123.143H98.8622V126Z" fill="#C4CFA1"/>
<rect x="112" y="106" width="24" height="24" fill="#8B956D"/>
<path d="M122.566 123.143H128.28V126H119.709V111.714H122.566V123.143Z" fill="#C4CFA1"/>
<rect x="140" y="106" width="24" height="24" fill="#1F1F1F"/>
<path d="M150.568 126V111.714H153.425V126H150.568Z" fill="#C4CFA1"/>
<rect x="168" y="106" width="24" height="24" fill="#8B956D"/>
<path d="M172.861 126V111.714H175.718V126H172.861ZM184.29 126V111.714H187.147V126H184.29ZM181.432 114.571H184.29V117.429H181.432V114.571ZM178.575 117.429H181.432V120.286H178.575V117.429ZM175.718 114.571H178.575V117.429H175.718V114.571Z" fill="#C4CFA1"/>
<rect x="196" y="106" width="24" height="24" fill="#4D533C"/>
<path d="M213.719 114.571V117.429H210.862V114.571H213.719ZM213.719 120.286V123.143H210.862V120.286H213.719ZM210.862 114.571H205.148V117.429H210.862V120.286H205.148V123.143H210.862V126H202.291V111.714H210.862V114.571Z" fill="#C4CFA1"/>
<rect x="84" y="134" width="24" height="24" fill="#1F1F1F"/>
<path d="M101.719 142.571V145.429H98.8622V142.571H101.719ZM101.719 148.286V151.143H98.8622V148.286H101.719ZM98.8622 142.571H93.1479V145.429H98.8622V148.286H93.1479V151.143H98.8622V154H90.2907V139.714H98.8622V142.571Z" fill="#C4CFA1"/>
<rect x="112" y="134" width="24" height="24" fill="#1F1F1F"/>
<path d="M118.291 154V139.714H126.862V142.571H121.148V145.429H126.862V148.286H121.148V154H118.291ZM126.862 142.571H129.719V145.429H126.862V142.571ZM124.005 148.286H126.862V151.143H124.005V148.286ZM126.862 151.143H129.719V154H126.862V151.143Z" fill="#C4CFA1"/>
<rect x="140" y="134" width="24" height="24" fill="#1F1F1F"/>
<path d="M150.568 154V139.714H153.425V154H150.568Z" fill="#C4CFA1"/>
<rect x="168" y="134" width="24" height="24" fill="#1F1F1F"/>
<path d="M172.861 154V139.714H175.718V154H172.861ZM184.29 154V139.714H187.147V154H184.29ZM181.432 148.286H184.29V151.143H181.432V148.286ZM178.575 145.429H181.432V148.286H178.575V145.429ZM175.718 142.571H178.575V145.429H175.718V142.571Z" fill="#C4CFA1"/>
<rect x="196" y="134" width="24" height="24" fill="#8B956D"/>
<path d="M205.148 148.286V154H202.291V139.714H205.148V145.429H208.005V148.286H205.148ZM208.005 142.571H210.862V145.429H208.005V142.571ZM210.862 139.714H213.719V142.571H210.862V139.714ZM208.005 148.286H210.862V151.143H208.005V148.286ZM210.862 151.143H213.719V154H210.862V151.143Z" fill="#C4CFA1"/>
<rect x="84.5" y="162.5" width="23" height="23" fill="#C4CFA1" stroke="#1F1F1F"/>
<path d="M101.719 170.571V173.429H98.8622V170.571H101.719ZM101.719 176.286V179.143H98.8622V176.286H101.719ZM98.8622 170.571H93.1479V173.429H98.8622V176.286H93.1479V179.143H98.8622V182H90.2907V167.714H98.8622V170.571Z" fill="#1F1F1F"/>
<rect x="112.5" y="162.5" width="23" height="23" fill="#C4CFA1" stroke="#1F1F1F"/>
<path d="M118.291 182V167.714H126.862V170.571H121.148V173.429H126.862V176.286H121.148V182H118.291ZM126.862 170.571H129.719V173.429H126.862V170.571ZM124.005 176.286H126.862V179.143H124.005V176.286ZM126.862 179.143H129.719V182H126.862V179.143Z" fill="#1F1F1F"/>
<rect x="140.5" y="162.5" width="23" height="23" fill="#C4CFA1" stroke="#1F1F1F"/>
<path d="M150.568 182V167.714H153.425V182H150.568Z" fill="#1F1F1F"/>
<rect x="168.5" y="162.5" width="23" height="23" fill="#C4CFA1" stroke="#1F1F1F"/>
<path d="M172.861 182V167.714H175.718V182H172.861ZM184.29 182V167.714H187.147V182H184.29ZM181.432 176.286H184.29V179.143H181.432V176.286ZM178.575 173.429H181.432V176.286H178.575V173.429ZM175.718 170.571H178.575V173.429H175.718V170.571Z" fill="#1F1F1F"/>
<rect x="196.5" y="162.5" width="23" height="23" fill="#C4CFA1" stroke="#8B956D"/>
</g>
<defs>
<clipPath id="clip0_2_64">
<rect width="160" height="144" fill="white" transform="translate(72 66)"/>
</clipPath>
</defs>
</svg>
